<svg xmlns="http://www.w3.org/2000/svg" width="512" height="512" enable-background="new 0 0 512 512" viewBox="0 0 512 512"><path d="M256.461,501.124c-65.368,0-126.827-25.449-173.055-71.66S11.72,321.818,11.72,256.477
				c0-65.337,25.459-126.771,71.687-172.982c46.229-46.214,107.688-71.665,173.055-71.665c65.378,0,126.848,25.451,173.086,71.665
				c46.238,46.212,71.702,107.646,71.702,172.982c0,65.342-25.464,126.776-71.702,172.987
				C383.311,475.675,321.841,501.124,256.461,501.124z M256.461,21.829c-129.437,0-234.742,105.263-234.742,234.647
				s105.305,234.647,234.742,234.647c129.462,0,234.789-105.263,234.789-234.647S385.924,21.829,256.461,21.829z"/><path d="M256.638 263.027c-1.314 0-2.576-.518-3.512-1.441-.954-.941-1.49-2.227-1.488-3.567l.206-118.771c.005-2.758 2.243-4.991 5-4.991.003 0 .006 0 .009 0 2.761.005 4.996 2.247 4.992 5.009l-.197 113.688 110.287-1.628c.025-.001.051-.001.076-.001 2.727 0 4.957 2.19 4.997 4.926.041 2.762-2.164 5.033-4.925 5.073l-115.371 1.703C256.687 263.027 256.662 263.027 256.638 263.027zM256.461 83.977c-2.761 0-5-2.238-5-5V26.684c0-2.762 2.239-5 5-5s5 2.238 5 5v52.293C261.461 81.738 259.223 83.977 256.461 83.977zM486.372 261.477h-52.316c-2.762 0-5-2.238-5-5s2.238-5 5-5h52.316c2.762 0 5 2.238 5 5S489.134 261.477 486.372 261.477zM256.484 491.282c-2.761 0-5-2.238-5-5v-52.293c0-2.762 2.239-5 5-5 2.762 0 5 2.238 5 5v52.293C261.484 489.044 259.246 491.282 256.484 491.282zM78.891 261.477H26.573c-2.761 0-5-2.238-5-5s2.239-5 5-5h52.318c2.761 0 5 2.238 5 5S81.652 261.477 78.891 261.477z"/></svg>