<svg xmlns="http://www.w3.org/2000/svg" enable-background="new 0 0 100 100" viewBox="0 0 100 100"><path d="M93.1,57.6c-0.9-0.8-1.9-1.3-3.1-1.5V48c0-9.2-5.3-17.5-13.4-21.5c1.8-2.5,2.6-5.6,2.3-8.8C78.3,11.3,73,6.3,66.6,6
	c-3.6-0.2-7,1.1-9.6,3.6c-2.6,2.5-4,5.8-4,9.4c0,2.7,0.8,5.3,2.4,7.5c-5.6,2.8-9.9,7.6-12,13.4c-1.2-0.9-2.5-1.7-3.8-2.4
	c1.8-2.5,2.6-5.6,2.3-8.8c-0.6-6.4-6-11.4-12.4-11.6c-3.6-0.2-7,1.1-9.6,3.6c-2.6,2.5-4,5.8-4,9.4c0,2.7,0.8,5.3,2.4,7.5
	C10.3,41.5,5,49.8,5,59v12c0,3.3,2.7,6,6,6h28v11c0,3.3,2.7,6,6,6h44c3.3,0,6-2.7,6-6V62C95,60.3,94.3,58.8,93.1,57.6z M59.4,29.1
	c0.7-0.2,1.2-0.8,1.3-1.5s-0.1-1.4-0.6-1.9c-1.9-1.7-3-4.2-3-6.7c0-2.5,1-4.8,2.8-6.5c1.7-1.6,3.9-2.5,6.2-2.5c0.1,0,0.3,0,0.4,0
	c4.4,0.2,8.1,3.6,8.5,8c0.3,2.9-0.8,5.7-3,7.7c-0.5,0.5-0.8,1.2-0.6,1.9s0.6,1.3,1.3,1.5C80.6,31.9,86,39.5,86,48v8H52.8
	c-0.6-5-2.8-9.6-6.1-13.2C48.4,36.5,53.1,31.3,59.4,29.1z M87.5,60L68.3,76.3c-0.8,0.6-1.8,0.6-2.6,0L46.5,60H87.5z M39,62v11H11
	c-1.1,0-2-0.9-2-2V59c0-8.5,5.4-16.1,13.4-18.9c0.7-0.2,1.2-0.8,1.3-1.5s-0.1-1.4-0.6-1.9c-1.9-1.7-3-4.2-3-6.7c0-2.5,1-4.8,2.8-6.5
	c1.7-1.6,3.9-2.5,6.2-2.5c0.1,0,0.3,0,0.4,0c4.4,0.2,8.1,3.6,8.5,8c0.3,2.9-0.8,5.7-3,7.7c-0.5,0.5-0.8,1.2-0.6,1.9s0.6,1.3,1.3,1.5
	c7,2.5,12.1,8.6,13.2,15.9H45c-1.5,0-3,0.6-4.1,1.6C39.7,58.8,39,60.3,39,62z M91,88c0,1.1-0.9,2-2,2H45c-1.1,0-2-0.9-2-2V62.3
	l20.1,17c1.1,1,2.5,1.4,3.9,1.4s2.8-0.5,3.9-1.4l20.1-17V88z"/></svg>