<svg xmlns="http://www.w3.org/2000/svg" viewBox="0 0 32 32"><path d="M29.845 9.177a.997.997 0 0 0-1.38-.31l-5.792 3.667c-.1-.451-.28-.87-.512-1.253l5.636-5.635a1 1 0 1 0-1.414-1.415l-5.636 5.636a4.139 4.139 0 0 0-2.153-.615c-1.273 0-2.4.584-3.169 1.484-.767-.92-1.907-1.517-3.196-1.517a4.188 4.188 0 0 0-4.091 3.322 4.183 4.183 0 0 0-3.269 4.03H3a1 1 0 1 0 0 2h.696l1.59 7.011c.526 1.497 2.017 2.48 3.591 2.48h13.069c1.574-.001 3.067-.983 3.592-2.48l1.589-7.012h.697a1 1 0 1 0 0-2h-1.87a4.163 4.163 0 0 0-1.265-2.946l4.846-3.067a1 1 0 0 0 .31-1.38zm-5.89 7.393h-4.356c.026-1.18.99-2.135 2.178-2.135s2.152.954 2.178 2.135zm-9.695-3.954a4.163 4.163 0 0 0-2.03 1.32 4.164 4.164 0 0 0-2.031-1.32 2.182 2.182 0 0 1 2.03-1.397c.926 0 1.714.582 2.03 1.397zm4.334-1.364c.915 0 1.697.567 2.021 1.367-.8.234-1.496.695-2.02 1.316a4.164 4.164 0 0 0-2.022-1.316 2.184 2.184 0 0 1 2.021-1.367zM17.59 16.57h-4.355a2.183 2.183 0 0 1 2.178-2.135c1.187 0 2.152.954 2.177 2.135zm-8.542-2.135c1.187 0 2.152.954 2.178 2.135H6.869a2.183 2.183 0 0 1 2.178-2.135z"/></svg>