<svg xmlns="http://www.w3.org/2000/svg" data-name="Layer 1" viewBox="0 0 32 32"><path d="M16 17.55a3.65 3.65 0 1 1 3.65-3.65A3.65 3.65 0 0 1 16 17.55zm0-5.3a1.65 1.65 0 1 0 1.65 1.65A1.65 1.65 0 0 0 16 12.25zm6.5 14.46h-13a1 1 0 0 1-1-1.2 7.64 7.64 0 0 1 15 0 1 1 0 0 1-1 1.2zm-11.63-2h10.26a5.64 5.64 0 0 0-10.26 0z"/><path d="M16 31.33a14.5 14.5 0 0 1 0-29 14.25 14.25 0 0 1 4.34.67 1 1 0 0 1 .63.59 1 1 0 0 1-.07.87 3.54 3.54 0 0 0-.52 1.87 3.65 3.65 0 0 0 6.28 2.54 1 1 0 0 1 .82-.31 1 1 0 0 1 .74.46A14.5 14.5 0 0 1 16 31.33Zm0-27a12.5 12.5 0 1 0 11.1 6.75A5.6 5.6 0 0 1 24 12a5.67 5.67 0 0 1-5.66-5.66 5.51 5.51 0 0 1 .27-1.71 12.44 12.44 0 0 0-2.61-.3Z"/><path d="M24 12a5.65 5.65 0 0 1-4.86-8.55A5.61 5.61 0 0 1 24 .67a5.67 5.67 0 0 1 5.7 5.66 5.54 5.54 0 0 1-1.61 3.93A5.6 5.6 0 0 1 24 12Zm0-9.32a3.62 3.62 0 0 0-3.1 1.78 3.54 3.54 0 0 0-.52 1.87 3.65 3.65 0 0 0 6.28 2.54 3.61 3.61 0 0 0 1-2.54A3.66 3.66 0 0 0 24 2.67Z"/><path d="M24 8.83a1 1 0 0 1-1-1v-3a1 1 0 1 1 2 0v3a1 1 0 0 1-1 1Z"/><path d="M25.54 7.33h-3a1 1 0 0 1 0-2h3a1 1 0 0 1 0 2Z"/></svg>