<svg xmlns="http://www.w3.org/2000/svg" viewBox="0 0 100 100"><path d="M66.1 17H33.9c-5.3 0-9.7 4.4-9.7 9.7v46.6c0 5.3 4.4 9.7 9.7 9.7h32.2c5.3 0 9.7-4.4 9.7-9.7V26.7c0-5.3-4.3-9.7-9.7-9.7zm7.7 56.3c0 4.2-3.5 7.7-7.7 7.7H33.9c-4.2 0-7.7-3.5-7.7-7.7V26.7c0-4.2 3.5-7.7 7.7-7.7h32.2c4.2 0 7.7 3.5 7.7 7.7v46.6z"/><path d="M67.2 46.9H49.4c-.6 0-1 .4-1 1s.4 1 1 1h17.8c.6 0 1-.4 1-1s-.4-1-1-1zm-17.8 7.7h10.8c.6 0 1-.4 1-1s-.4-1-1-1H49.4c-.6 0-1 .4-1 1s.4 1 1 1zm-8.1 7.9h-5.9c-2 0-3.6 1.6-3.6 3.6V72c0 2 1.6 3.6 3.6 3.6h5.9c2 0 3.6-1.6 3.6-3.6v-5.9c0-2-1.6-3.6-3.6-3.6zm-.5 6.2-2.6 2.2c-.2.1-.4.2-.6.2h-.1c-.3 0-.5-.2-.7-.4l-1-1.4c-.3-.4-.2-1.1.3-1.4.5-.3 1.1-.2 1.4.3l.3.5 1.8-1.5c.4-.4 1-.3 1.4.1.2.4.2 1-.2 1.4zm-5.2-29.4h28.7c2.1 0 3.9-1.7 3.9-3.9v-7.1c0-2.1-1.7-3.9-3.9-3.9H35.6c-2.1 0-3.9 1.7-3.9 3.9v7.1c.1 2.1 1.8 3.9 3.9 3.9zm5.7 4.9h-5.9c-2 0-3.6 1.6-3.6 3.6v5.9c0 2 1.6 3.6 3.6 3.6h5.9c2 0 3.6-1.6 3.6-3.6v-5.9c0-2-1.6-3.6-3.6-3.6zm-.5 6.2-2.6 2.2c-.2.2-.4.2-.6.2h-.1c-.3 0-.5-.2-.7-.4l-1-1.4c-.3-.5-.2-1.1.3-1.4.5-.3 1.1-.2 1.4.3l.3.5 1.8-1.5c.4-.3 1-.3 1.4.1.2.4.2 1-.2 1.4zm26.4 14.8H49.4c-.6 0-1 .4-1 1s.4 1 1 1h17.8c.6 0 1-.4 1-1s-.4-1-1-1zm-7 5.7H49.4c-.6 0-1 .4-1 1s.4 1 1 1h10.8c.6 0 1-.4 1-1s-.5-1-1-1z"/></svg>