<svg xmlns="http://www.w3.org/2000/svg" viewBox="0 0 256 256"><rect width="256" height="256" fill="none"/><rect width="40" height="144" x="56" y="56" fill="none" stroke="#000" stroke-linecap="round" stroke-linejoin="round" stroke-width="12" rx="8"/><rect width="40" height="144" x="160" y="56" fill="none" stroke="#000" stroke-linecap="round" stroke-linejoin="round" stroke-width="12" rx="8"/><path fill="none" stroke="#000" stroke-linecap="round" stroke-linejoin="round" stroke-width="12" d="M200 80h24a8 8 0 0 1 8 8v80a8 8 0 0 1-8 8H200M56 176H32a8 8 0 0 1-8-8V88a8 8 0 0 1 8-8H56"/><line x1="96" x2="160" y1="128" y2="128" fill="none" stroke="#000" stroke-linecap="round" stroke-linejoin="round" stroke-width="12"/><line x1="232" x2="248" y1="128" y2="128" fill="none" stroke="#000" stroke-linecap="round" stroke-linejoin="round" stroke-width="12"/><line x1="8" x2="24" y1="128" y2="128" fill="none" stroke="#000" stroke-linecap="round" stroke-linejoin="round" stroke-width="12"/></svg>